<?xml version="1.0" standalone="no"?>
<!DOCTYPE svg PUBLIC "-//W3C//DTD SVG 20010904//EN"
 "http://www.w3.org/TR/2001/REC-SVG-20010904/DTD/svg10.dtd">
<svg version="1.0" xmlns="http://www.w3.org/2000/svg"
 width="1024.000000pt" height="1024.000000pt" viewBox="0 0 1024.000000 1024.000000"
 preserveAspectRatio="xMidYMid meet">

<g transform="translate(0.000000,1024.000000) scale(0.100000,-0.100000)"
fill="#000000" stroke="none">
<path d="M2250 8026 c0 -13 16 -68 35 -122 18 -54 32 -101 29 -105 -2 -4 0
-10 6 -14 6 -4 8 -11 5 -16 -4 -5 -1 -9 5 -9 6 0 9 -4 6 -8 -5 -9 9 -52 67
-204 14 -36 23 -69 20 -72 -4 -3 -1 -6 6 -6 7 0 10 -4 7 -8 -3 -5 13 -56 35
-113 22 -57 41 -111 42 -119 1 -8 6 -21 10 -27 5 -7 10 -21 12 -30 5 -24 47
-145 73 -209 12 -29 18 -55 15 -58 -4 -3 -1 -6 6 -6 8 0 11 -7 7 -15 -3 -8 -1
-15 5 -15 6 0 8 -4 5 -8 -3 -5 14 -59 38 -120 24 -62 42 -112 39 -112 -3 0 0
-6 6 -13 6 -8 8 -17 4 -20 -3 -4 -1 -7 6 -7 7 0 10 -4 7 -8 -3 -4 16 -62 41
-128 25 -65 46 -126 48 -134 2 -8 4 -15 5 -15 1 0 3 -9 5 -21 3 -11 22 -65 44
-121 22 -55 42 -112 45 -127 2 -14 8 -31 13 -38 4 -7 9 -21 10 -30 1 -9 19
-60 39 -113 20 -53 37 -104 39 -113 2 -10 4 -17 5 -17 1 0 3 -7 5 -15 1 -8 21
-64 45 -125 23 -60 43 -117 45 -125 2 -8 4 -15 5 -15 1 0 3 -7 5 -15 2 -8 24
-71 50 -140 26 -69 48 -131 48 -137 0 -7 4 -13 8 -13 4 0 7 -8 7 -17 0 -10 20
-72 46 -138 25 -66 48 -131 51 -144 2 -13 27 -82 56 -155 28 -72 53 -141 55
-153 2 -12 22 -67 43 -123 22 -55 37 -100 34 -100 -3 0 0 -6 6 -13 6 -8 8 -17
4 -20 -3 -4 -2 -7 3 -7 5 0 10 -8 11 -18 1 -10 22 -72 47 -138 25 -65 46 -127
46 -136 0 -10 5 -18 12 -18 6 0 9 -3 5 -6 -3 -3 13 -56 35 -118 22 -61 41
-117 41 -123 0 -7 4 -13 8 -13 4 0 7 -8 7 -17 -1 -10 19 -61 44 -113 24 -52
53 -113 62 -135 10 -22 34 -67 54 -100 20 -33 36 -63 34 -67 -1 -5 3 -8 9 -8
5 0 8 -4 5 -9 -4 -5 -3 -11 1 -13 5 -1 43 -56 87 -121 43 -65 87 -122 97 -128
11 -5 19 -15 19 -21 0 -6 9 -20 20 -32 109 -113 211 -216 215 -216 3 0 24 -18
47 -40 47 -45 353 -253 377 -256 9 -1 48 -18 132 -58 42 -19 92 -38 110 -41
18 -3 37 -11 41 -18 4 -7 8 -9 8 -5 0 4 31 -4 70 -17 104 -35 269 -66 349 -65
12 0 28 -3 34 -7 7 -4 49 -6 94 -4 55 2 83 -1 83 -8 0 -15 246 -15 255 0 4 6
24 9 44 8 20 -2 42 0 48 4 7 4 23 6 37 3 14 -3 28 -1 31 4 3 5 19 7 34 4 16
-4 32 -1 35 5 4 6 11 9 16 6 9 -5 56 6 190 45 41 12 82 22 90 23 8 1 17 5 20
9 3 4 17 10 30 12 14 2 25 5 25 6 0 1 7 3 15 5 36 7 293 140 382 198 123 78
256 187 350 286 94 99 154 171 150 182 -1 5 2 9 7 9 6 0 35 39 67 88 31 48 69
105 84 127 23 34 144 271 146 285 0 3 7 21 15 40 21 46 77 218 83 250 3 14 5
27 6 30 1 3 3 10 5 15 1 6 3 12 4 15 1 3 4 19 7 35 2 17 14 75 26 130 l22 100
3 1963 4 1962 -345 0 -344 -1 -36 -67 c-19 -37 -59 -106 -88 -153 -29 -48 -84
-138 -121 -200 -38 -63 -72 -116 -77 -119 -4 -3 -16 -21 -27 -40 -37 -69 -137
-235 -143 -240 -4 -3 -33 -50 -65 -105 -32 -55 -66 -111 -76 -124 -11 -13 -19
-30 -19 -37 0 -8 -4 -14 -10 -14 -5 0 -10 -4 -10 -9 0 -9 -63 -114 -140 -233
l-38 -57 -36 54 c-20 30 -33 55 -29 55 5 0 4 4 -2 8 -11 8 -26 32 -82 132 -19
36 -55 95 -79 132 -24 36 -44 69 -44 72 0 4 -19 37 -41 74 -23 37 -69 114
-102 172 -33 58 -63 107 -66 110 -3 3 -7 12 -9 20 -2 8 -14 29 -26 45 -13 17
-40 62 -61 100 -21 39 -46 82 -56 96 -25 35 -136 233 -162 287 l-21 42 -374
-2 -374 -3 -39 -107 c-21 -60 -35 -108 -31 -108 4 0 1 -4 -6 -9 -7 -4 -14 -18
-15 -29 -1 -12 -6 -22 -11 -22 -5 0 -7 -3 -3 -6 3 -3 -12 -55 -33 -115 -21
-60 -36 -109 -33 -109 3 0 0 -6 -6 -13 -6 -8 -8 -17 -4 -20 3 -4 1 -7 -6 -7
-8 0 -11 -7 -7 -15 3 -8 1 -15 -5 -15 -6 0 -8 -4 -5 -8 3 -5 -13 -58 -35 -118
-22 -60 -41 -117 -42 -126 -1 -10 -5 -18 -9 -18 -4 0 -5 -7 -2 -15 4 -8 1 -15
-5 -15 -6 0 -10 -3 -10 -7 1 -5 0 -10 -1 -13 -1 -3 -3 -12 -5 -21 -1 -8 -22
-67 -45 -130 -23 -63 -44 -123 -46 -134 -2 -11 -24 -76 -49 -143 -25 -68 -43
-128 -39 -133 3 -5 0 -9 -6 -9 -7 0 -10 -7 -6 -15 3 -8 2 -15 -3 -15 -4 0 -8
-6 -8 -12 0 -7 -16 -57 -37 -111 -20 -54 -38 -108 -40 -120 -3 -12 -5 -24 -6
-27 -2 -3 -2 -8 -1 -12 0 -5 -4 -8 -11 -8 -6 0 -8 -3 -5 -7 4 -3 2 -12 -4 -20
-6 -7 -9 -13 -6 -13 3 0 -10 -44 -30 -97 -19 -54 -36 -105 -37 -113 0 -8 -4
-17 -8 -20 -4 -3 -9 -19 -12 -36 -3 -16 -26 -84 -51 -149 -25 -66 -47 -131
-50 -145 -2 -13 -13 -47 -24 -75 -11 -27 -31 -81 -46 -119 -15 -38 -28 -76
-30 -85 -7 -37 -47 -132 -53 -126 -4 3 -17 34 -30 68 -50 133 -70 196 -64 201
3 3 0 6 -6 6 -6 0 -9 7 -6 15 4 8 2 15 -3 15 -5 0 -9 8 -10 18 -1 9 -23 75
-48 145 -25 70 -48 136 -50 147 -2 10 -20 65 -41 122 -20 57 -37 109 -37 116
0 6 -5 12 -10 12 -5 0 -7 7 -3 15 3 8 1 15 -4 15 -6 0 -9 3 -9 8 1 4 1 9 -1
12 -1 3 -3 14 -5 26 -3 12 -22 70 -44 129 -22 60 -38 112 -35 117 3 4 1 8 -5
8 -6 0 -8 7 -5 15 4 8 2 15 -3 15 -5 0 -9 8 -10 18 -1 9 -18 61 -38 116 -20
54 -38 105 -40 114 -2 10 -4 17 -5 17 -1 0 -3 7 -5 15 -2 8 -23 72 -48 143
-25 70 -46 130 -46 132 -1 3 -1 6 -2 8 0 1 -3 13 -5 27 -2 13 -8 27 -12 30 -4
3 -8 12 -10 20 -2 8 -19 60 -39 115 -20 55 -36 106 -36 113 0 6 -5 12 -10 12
-5 0 -7 7 -3 15 3 8 2 15 -2 15 -4 0 -8 8 -9 18 -1 10 -20 69 -43 131 -23 62
-43 120 -45 130 -2 10 -26 83 -53 162 -27 79 -52 161 -56 182 l-7 37 -364 0
-365 0 0 -24z m3175 -951 c15 -27 31 -52 35 -55 4 -3 33 -50 65 -105 32 -55
65 -108 73 -117 8 -10 11 -18 6 -18 -5 0 -4 -4 2 -8 6 -4 46 -65 89 -137 42
-71 108 -179 146 -240 38 -60 76 -123 84 -140 14 -27 57 -99 148 -245 19 -30
47 -77 62 -105 43 -76 77 -129 89 -137 6 -5 7 -8 1 -8 -7 0 -7 -3 0 -8 6 -4
15 -16 22 -27 7 -11 31 -51 54 -90 23 -38 63 -102 89 -142 40 -60 50 -70 62
-60 13 10 37 49 106 172 9 17 22 33 27 37 7 5 7 8 0 8 -6 0 -6 3 0 8 6 4 33
45 60 92 26 47 70 120 97 162 26 42 48 79 48 82 0 7 62 109 70 116 4 3 21 32
40 65 18 33 47 82 63 109 33 52 38 61 102 176 22 40 55 95 74 124 18 28 61 98
94 156 34 58 65 107 69 108 4 2 8 9 8 16 0 7 11 27 24 45 l24 32 4 -48 c3 -26
3 -617 0 -1313 -2 -696 -4 -1295 -4 -1332 1 -38 -3 -68 -8 -68 -5 0 -7 -6 -4
-13 7 -18 -30 -183 -63 -282 -15 -44 -28 -87 -29 -95 -4 -22 -88 -194 -97
-198 -4 -2 -5 -8 -1 -13 3 -5 0 -9 -7 -9 -7 0 -10 -3 -6 -6 14 -15 -144 -224
-249 -330 -99 -99 -285 -243 -306 -236 -5 1 -8 -3 -8 -9 0 -5 -4 -7 -10 -4 -5
3 -10 1 -10 -4 0 -6 -3 -10 -7 -9 -5 1 -48 -17 -96 -40 -48 -24 -92 -40 -97
-37 -6 3 -10 1 -10 -4 0 -6 -3 -10 -7 -10 -5 1 -11 0 -15 -1 -5 -1 -12 -4 -18
-5 -5 -1 -11 -3 -12 -5 -2 -1 -10 -3 -18 -5 -8 -1 -62 -13 -120 -26 -94 -21
-130 -24 -340 -24 -207 0 -246 3 -330 22 -52 12 -114 29 -137 37 -24 8 -43 13
-43 11 0 -5 -112 41 -151 63 -135 76 -199 115 -199 122 0 4 -16 15 -36 25 -19
9 -83 65 -140 123 -133 135 -134 136 -134 150 0 7 -4 12 -10 12 -5 0 -10 6
-10 13 0 6 -13 24 -28 39 -61 60 -284 510 -267 538 3 5 2 10 -4 10 -6 0 -8 7
-5 15 4 8 2 15 -3 15 -5 0 -10 11 -11 25 -1 13 -11 57 -22 97 -27 97 -25 124
10 203 17 37 27 71 24 76 -3 5 0 9 7 9 7 0 10 2 7 5 -3 3 14 56 39 118 24 62
45 120 46 130 1 9 5 17 10 17 4 0 6 4 3 8 -2 4 4 28 16 52 32 71 78 200 72
200 -4 0 -1 7 6 15 7 8 10 15 7 15 -3 0 17 55 44 123 28 67 51 130 52 140 1 9
5 17 9 17 3 0 6 8 6 18 -1 9 18 66 42 126 24 60 43 115 43 123 0 7 4 13 9 13
4 0 7 3 7 8 -1 4 -1 9 1 12 1 3 3 15 6 27 2 12 14 46 27 75 21 46 58 147 63
171 1 4 2 8 4 10 1 1 3 9 5 17 4 18 35 103 64 178 12 28 18 52 13 52 -4 0 -2
4 5 8 7 4 14 21 17 37 3 17 23 75 45 129 22 55 38 103 35 108 -3 4 -1 8 5 8 6
0 8 7 5 15 -4 8 -2 15 3 15 5 0 9 8 10 18 1 10 18 58 38 106 20 49 37 97 38
107 1 11 6 19 11 19 5 0 6 3 3 7 -4 3 -2 12 4 20 6 7 9 13 6 13 -3 0 12 45 33
99 21 54 40 107 42 117 2 11 6 21 10 24 4 3 9 17 11 30 5 26 46 141 73 205
l15 37 27 -43 c15 -24 41 -66 57 -94z"/>
</g>
</svg>
